<svg id="visual" viewBox="0 0 900 600" width="900" height="600" xmlns="http://www.w3.org/2000/svg" xmlns:xlink="http://www.w3.org/1999/xlink" version="1.1"><rect x="0" y="0" width="900" height="600" fill="#F5DDC0"></rect><path d="M0 434L15 429.2C30 424.3 60 414.7 90 415.8C120 417 150 429 180 434.8C210 440.7 240 440.3 270 437.2C300 434 330 428 360 428.3C390 428.7 420 435.3 450 431.5C480 427.7 510 413.3 540 411.7C570 410 600 421 630 423C660 425 690 418 720 413.7C750 409.3 780 407.7 810 415C840 422.3 870 438.7 885 446.8L900 455L900 601L885 601C870 601 840 601 810 601C780 601 750 601 720 601C690 601 660 601 630 601C600 601 570 601 540 601C510 601 480 601 450 601C420 601 390 601 360 601C330 601 300 601 270 601C240 601 210 601 180 601C150 601 120 601 90 601C60 601 30 601 15 601L0 601Z" fill="#fbc9cc"></path><path d="M0 486L15 483.7C30 481.3 60 476.7 90 472C120 467.3 150 462.7 180 464.2C210 465.7 240 473.3 270 477.7C300 482 330 483 360 476.5C390 470 420 456 450 454.5C480 453 510 464 540 464.3C570 464.7 600 454.3 630 450C660 445.7 690 447.3 720 450.8C750 454.3 780 459.7 810 461.2C840 462.7 870 460.3 885 459.2L900 458L900 601L885 601C870 601 840 601 810 601C780 601 750 601 720 601C690 601 660 601 630 601C600 601 570 601 540 601C510 601 480 601 450 601C420 601 390 601 360 601C330 601 300 601 270 601C240 601 210 601 180 601C150 601 120 601 90 601C60 601 30 601 15 601L0 601Z" fill="#f9bdc0"></path><path d="M0 505L15 498.5C30 492 60 479 90 478.2C120 477.3 150 488.7 180 491.5C210 494.3 240 488.7 270 490.7C300 492.7 330 502.3 360 505.7C390 509 420 506 450 500C480 494 510 485 540 483.2C570 481.3 600 486.7 630 492.8C660 499 690 506 720 508.7C750 511.3 780 509.7 810 506.5C840 503.3 870 498.7 885 496.3L900 494L900 601L885 601C870 601 840 601 810 601C780 601 750 601 720 601C690 601 660 601 630 601C600 601 570 601 540 601C510 601 480 601 450 601C420 601 390 601 360 601C330 601 300 601 270 601C240 601 210 601 180 601C150 601 120 601 90 601C60 601 30 601 15 601L0 601Z" fill="#f6b0b5"></path><path d="M0 539L15 539.5C30 540 60 541 90 540.8C120 540.7 150 539.3 180 538.3C210 537.3 240 536.7 270 536.3C300 536 330 536 360 536.3C390 536.7 420 537.3 450 537.5C480 537.7 510 537.3 540 532C570 526.7 600 516.3 630 513.5C660 510.7 690 515.3 720 514.7C750 514 780 508 810 505.2C840 502.3 870 502.7 885 502.8L900 503L900 601L885 601C870 601 840 601 810 601C780 601 750 601 720 601C690 601 660 601 630 601C600 601 570 601 540 601C510 601 480 601 450 601C420 601 390 601 360 601C330 601 300 601 270 601C240 601 210 601 180 601C150 601 120 601 90 601C60 601 30 601 15 601L0 601Z" fill="#f6a4aa"></path><path d="M0 545L15 546C30 547 60 549 90 550C120 551 150 551 180 553.8C210 556.7 240 562.3 270 565C300 567.7 330 567.3 360 563C390 558.7 420 550.3 450 547.3C480 544.3 510 546.7 540 552.7C570 558.7 600 568.3 630 566.7C660 565 690 552 720 550.3C750 548.7 780 558.3 810 563.7C840 569 870 570 885 570.5L900 571L900 601L885 601C870 601 840 601 810 601C780 601 750 601 720 601C690 601 660 601 630 601C600 601 570 601 540 601C510 601 480 601 450 601C420 601 390 601 360 601C330 601 300 601 270 601C240 601 210 601 180 601C150 601 120 601 90 601C60 601 30 601 15 601L0 601Z" fill="#f5989e"></path></svg>