<svg xmlns="http://www.w3.org/2000/svg" version="1.1" xmlns:xlink="http://www.w3.org/1999/xlink" xmlns:svgjs="http://svgjs.dev/svgjs" width="1920" height="1080" preserveAspectRatio="none" viewBox="0 0 1920 1080"><g mask="url(&quot;#SvgjsMask1728&quot;)" fill="none"><rect width="1920" height="1080" x="0" y="0" fill="url(&quot;#SvgjsLinearGradient1729&quot;)"></rect><path d="M1920 0L964.38 0L1920 453.87z" fill="rgba(255, 255, 255, .1)"></path><path d="M964.38 0L1920 453.87L1920 539.6L481.3 0z" fill="rgba(255, 255, 255, .075)"></path><path d="M481.29999999999995 0L1920 539.6L1920 795.9300000000001L239.14999999999995 0z" fill="rgba(255, 255, 255, .05)"></path><path d="M239.14999999999986 0L1920 795.9300000000001L1920 846.5600000000001L162.39999999999986 0z" fill="rgba(255, 255, 255, .025)"></path><path d="M0 1080L847.03 1080L0 942.59z" fill="rgba(0, 0, 0, .1)"></path><path d="M0 942.59L847.03 1080L914.61 1080L0 850.08z" fill="rgba(0, 0, 0, .075)"></path><path d="M0 850.0799999999999L914.61 1080L1305.87 1080L0 639.91z" fill="rgba(0, 0, 0, .05)"></path><path d="M0 639.91L1305.87 1080L1729.9299999999998 1080L0 453.81999999999994z" fill="rgba(0, 0, 0, .025)"></path></g><defs><mask id="SvgjsMask1728"><rect width="1920" height="1080" fill="#ffffff"></rect></mask><linearGradient x1="10.94%" y1="-19.44%" x2="89.06%" y2="119.44%" gradientUnits="userSpaceOnUse" id="SvgjsLinearGradient1729"><stop stop-color="rgba(250, 228, 173, 1)" offset="0"></stop><stop stop-color="rgba(255, 179, 254, 1)" offset="1"></stop></linearGradient></defs></svg>