<svg id="visual" viewBox="0 0 2500 450" width="2500" height="450" xmlns="http://www.w3.org/2000/svg" xmlns:xlink="http://www.w3.org/1999/xlink" version="1.1"><rect x="0" y="0" width="2500" height="450" fill="#ffffff"></rect><path d="M0 76L22 81.3C44 86.7 88 97.3 131.8 103C175.7 108.7 219.3 109.3 263.2 117C307 124.7 351 139.3 394.8 145.7C438.7 152 482.3 150 526.2 135C570 120 614 92 657.8 85.5C701.7 79 745.3 94 789.2 113C833 132 877 155 921 147.2C965 139.3 1009 100.7 1052.8 92.3C1096.7 84 1140.3 106 1184.2 115.2C1228 124.3 1272 120.7 1315.8 128.3C1359.7 136 1403.3 155 1447.2 158.3C1491 161.7 1535 149.3 1579 135.3C1623 121.3 1667 105.7 1710.8 100C1754.7 94.3 1798.3 98.7 1842.2 94.7C1886 90.7 1930 78.3 1973.8 71.2C2017.7 64 2061.3 62 2105.2 69.2C2149 76.3 2193 92.7 2236.8 107.8C2280.7 123 2324.3 137 2368.2 134.3C2412 131.7 2456 112.3 2478 102.7L2500 93L2500 0L2478 0C2456 0 2412 0 2368.2 0C2324.3 0 2280.7 0 2236.8 0C2193 0 2149 0 2105.2 0C2061.3 0 2017.7 0 1973.8 0C1930 0 1886 0 1842.2 0C1798.3 0 1754.7 0 1710.8 0C1667 0 1623 0 1579 0C1535 0 1491 0 1447.2 0C1403.3 0 1359.7 0 1315.8 0C1272 0 1228 0 1184.2 0C1140.3 0 1096.7 0 1052.8 0C1009 0 965 0 921 0C877 0 833 0 789.2 0C745.3 0 701.7 0 657.8 0C614 0 570 0 526.2 0C482.3 0 438.7 0 394.8 0C351 0 307 0 263.2 0C219.3 0 175.7 0 131.8 0C88 0 44 0 22 0L0 0Z" fill="#f4acb7"></path><path d="M0 134L22 131.8C44 129.7 88 125.3 131.8 121.2C175.7 117 219.3 113 263.2 116C307 119 351 129 394.8 125C438.7 121 482.3 103 526.2 97C570 91 614 97 657.8 88.7C701.7 80.3 745.3 57.7 789.2 58.3C833 59 877 83 921 98.3C965 113.7 1009 120.3 1052.8 124.5C1096.7 128.7 1140.3 130.3 1184.2 115.8C1228 101.3 1272 70.7 1315.8 72C1359.7 73.3 1403.3 106.7 1447.2 110.3C1491 114 1535 88 1579 79C1623 70 1667 78 1710.8 75C1754.7 72 1798.3 58 1842.2 55.2C1886 52.3 1930 60.7 1973.8 63.2C2017.7 65.7 2061.3 62.3 2105.2 68.5C2149 74.7 2193 90.3 2236.8 102.5C2280.7 114.7 2324.3 123.3 2368.2 114.7C2412 106 2456 80 2478 67L2500 54L2500 0L2478 0C2456 0 2412 0 2368.2 0C2324.3 0 2280.7 0 2236.8 0C2193 0 2149 0 2105.2 0C2061.3 0 2017.7 0 1973.8 0C1930 0 1886 0 1842.2 0C1798.3 0 1754.7 0 1710.8 0C1667 0 1623 0 1579 0C1535 0 1491 0 1447.2 0C1403.3 0 1359.7 0 1315.8 0C1272 0 1228 0 1184.2 0C1140.3 0 1096.7 0 1052.8 0C1009 0 965 0 921 0C877 0 833 0 789.2 0C745.3 0 701.7 0 657.8 0C614 0 570 0 526.2 0C482.3 0 438.7 0 394.8 0C351 0 307 0 263.2 0C219.3 0 175.7 0 131.8 0C88 0 44 0 22 0L0 0Z" fill="#f9bcb2"></path><path d="M0 76L22 74.3C44 72.7 88 69.3 131.8 66.3C175.7 63.3 219.3 60.7 263.2 66.8C307 73 351 88 394.8 86C438.7 84 482.3 65 526.2 57.7C570 50.3 614 54.7 657.8 53.5C701.7 52.3 745.3 45.7 789.2 51C833 56.3 877 73.7 921 83.7C965 93.7 1009 96.3 1052.8 88.5C1096.7 80.7 1140.3 62.3 1184.2 50.3C1228 38.3 1272 32.7 1315.8 37C1359.7 41.3 1403.3 55.7 1447.2 61C1491 66.3 1535 62.7 1579 56C1623 49.3 1667 39.7 1710.8 42C1754.7 44.3 1798.3 58.7 1842.2 56.7C1886 54.7 1930 36.3 1973.8 38C2017.7 39.7 2061.3 61.3 2105.2 63.7C2149 66 2193 49 2236.8 40.5C2280.7 32 2324.3 32 2368.2 37.2C2412 42.3 2456 52.7 2478 57.8L2500 63L2500 0L2478 0C2456 0 2412 0 2368.2 0C2324.3 0 2280.7 0 2236.8 0C2193 0 2149 0 2105.2 0C2061.3 0 2017.7 0 1973.8 0C1930 0 1886 0 1842.2 0C1798.3 0 1754.7 0 1710.8 0C1667 0 1623 0 1579 0C1535 0 1491 0 1447.2 0C1403.3 0 1359.7 0 1315.8 0C1272 0 1228 0 1184.2 0C1140.3 0 1096.7 0 1052.8 0C1009 0 965 0 921 0C877 0 833 0 789.2 0C745.3 0 701.7 0 657.8 0C614 0 570 0 526.2 0C482.3 0 438.7 0 394.8 0C351 0 307 0 263.2 0C219.3 0 175.7 0 131.8 0C88 0 44 0 22 0L0 0Z" fill="#f8ccb5"></path><path d="M0 55L22 45.8C44 36.7 88 18.3 131.8 17.3C175.7 16.3 219.3 32.7 263.2 34C307 35.3 351 21.7 394.8 14.3C438.7 7 482.3 6 526.2 6.5C570 7 614 9 657.8 14.2C701.7 19.3 745.3 27.7 789.2 27C833 26.3 877 16.7 921 19.7C965 22.7 1009 38.3 1052.8 43.5C1096.7 48.7 1140.3 43.3 1184.2 38.3C1228 33.3 1272 28.7 1315.8 24.3C1359.7 20 1403.3 16 1447.2 18.2C1491 20.3 1535 28.7 1579 26.7C1623 24.7 1667 12.3 1710.8 12.2C1754.7 12 1798.3 24 1842.2 24.3C1886 24.7 1930 13.3 1973.8 14.5C2017.7 15.7 2061.3 29.3 2105.2 29.3C2149 29.3 2193 15.7 2236.8 16.5C2280.7 17.3 2324.3 32.7 2368.2 40C2412 47.3 2456 46.7 2478 46.3L2500 46L2500 0L2478 0C2456 0 2412 0 2368.2 0C2324.3 0 2280.7 0 2236.8 0C2193 0 2149 0 2105.2 0C2061.3 0 2017.7 0 1973.8 0C1930 0 1886 0 1842.2 0C1798.3 0 1754.7 0 1710.8 0C1667 0 1623 0 1579 0C1535 0 1491 0 1447.2 0C1403.3 0 1359.7 0 1315.8 0C1272 0 1228 0 1184.2 0C1140.3 0 1096.7 0 1052.8 0C1009 0 965 0 921 0C877 0 833 0 789.2 0C745.3 0 701.7 0 657.8 0C614 0 570 0 526.2 0C482.3 0 438.7 0 394.8 0C351 0 307 0 263.2 0C219.3 0 175.7 0 131.8 0C88 0 44 0 22 0L0 0Z" fill="#f5ddc0"></path></svg>