<svg id="visual" viewBox="0 0 900 600" width="900" height="600" xmlns="http://www.w3.org/2000/svg" xmlns:xlink="http://www.w3.org/1999/xlink" version="1.1"><rect x="0" y="0" width="900" height="600" fill="#f5ddc0"></rect><defs><linearGradient id="grad1_0" x1="33.3%" y1="0%" x2="100%" y2="100%"><stop offset="20%" stop-color="#f4acb7" stop-opacity="1"></stop><stop offset="80%" stop-color="#f4acb7" stop-opacity="1"></stop></linearGradient></defs><defs><linearGradient id="grad1_1" x1="33.3%" y1="0%" x2="100%" y2="100%"><stop offset="20%" stop-color="#f4acb7" stop-opacity="1"></stop><stop offset="80%" stop-color="#f8b5b3" stop-opacity="1"></stop></linearGradient></defs><defs><linearGradient id="grad1_2" x1="33.3%" y1="0%" x2="100%" y2="100%"><stop offset="20%" stop-color="#f9bfb2" stop-opacity="1"></stop><stop offset="80%" stop-color="#f8b5b3" stop-opacity="1"></stop></linearGradient></defs><defs><linearGradient id="grad1_3" x1="33.3%" y1="0%" x2="100%" y2="100%"><stop offset="20%" stop-color="#f9bfb2" stop-opacity="1"></stop><stop offset="80%" stop-color="#f9c9b4" stop-opacity="1"></stop></linearGradient></defs><defs><linearGradient id="grad1_4" x1="33.3%" y1="0%" x2="100%" y2="100%"><stop offset="20%" stop-color="#f7d3b9" stop-opacity="1"></stop><stop offset="80%" stop-color="#f9c9b4" stop-opacity="1"></stop></linearGradient></defs><defs><linearGradient id="grad1_5" x1="33.3%" y1="0%" x2="100%" y2="100%"><stop offset="20%" stop-color="#f7d3b9" stop-opacity="1"></stop><stop offset="80%" stop-color="#f5ddc0" stop-opacity="1"></stop></linearGradient></defs><defs><linearGradient id="grad2_0" x1="0%" y1="0%" x2="66.7%" y2="100%"><stop offset="20%" stop-color="#f4acb7" stop-opacity="1"></stop><stop offset="80%" stop-color="#f4acb7" stop-opacity="1"></stop></linearGradient></defs><defs><linearGradient id="grad2_1" x1="0%" y1="0%" x2="66.7%" y2="100%"><stop offset="20%" stop-color="#f8b5b3" stop-opacity="1"></stop><stop offset="80%" stop-color="#f4acb7" stop-opacity="1"></stop></linearGradient></defs><defs><linearGradient id="grad2_2" x1="0%" y1="0%" x2="66.7%" y2="100%"><stop offset="20%" stop-color="#f8b5b3" stop-opacity="1"></stop><stop offset="80%" stop-color="#f9bfb2" stop-opacity="1"></stop></linearGradient></defs><defs><linearGradient id="grad2_3" x1="0%" y1="0%" x2="66.7%" y2="100%"><stop offset="20%" stop-color="#f9c9b4" stop-opacity="1"></stop><stop offset="80%" stop-color="#f9bfb2" stop-opacity="1"></stop></linearGradient></defs><defs><linearGradient id="grad2_4" x1="0%" y1="0%" x2="66.7%" y2="100%"><stop offset="20%" stop-color="#f9c9b4" stop-opacity="1"></stop><stop offset="80%" stop-color="#f7d3b9" stop-opacity="1"></stop></linearGradient></defs><defs><linearGradient id="grad2_5" x1="0%" y1="0%" x2="66.7%" y2="100%"><stop offset="20%" stop-color="#f5ddc0" stop-opacity="1"></stop><stop offset="80%" stop-color="#f7d3b9" stop-opacity="1"></stop></linearGradient></defs><g transform="translate(900, 0)"><path d="M0 486.7C-31.5 474.5 -62.9 462.3 -87.6 440.4C-112.3 418.5 -130.2 386.8 -153.8 371.4C-177.5 356 -206.8 356.7 -230 344.2C-253.2 331.8 -270.2 306.1 -283.5 283.5C-296.9 261 -306.7 241.7 -343.4 229.5C-380.1 217.2 -443.8 212.1 -449.7 186.3C-455.6 160.5 -403.6 114.1 -400.2 79.6C-396.7 45.1 -441.7 22.6 -486.7 0L0 0Z" fill="#f6d8bc"></path><path d="M0 405.6C-26.2 395.4 -52.4 385.2 -73 367C-93.6 348.7 -108.5 322.4 -128.2 309.5C-147.9 296.6 -172.4 297.3 -191.7 286.9C-211 276.5 -225.1 255.1 -236.3 236.3C-247.4 217.5 -255.6 201.4 -286.2 191.2C-316.8 181 -369.9 176.7 -374.7 155.2C-379.6 133.7 -336.4 95.1 -333.5 66.3C-330.6 37.6 -368.1 18.8 -405.6 0L0 0Z" fill="#f8ceb6"></path><path d="M0 324.5C-21 316.3 -41.9 308.2 -58.4 293.6C-74.9 279 -86.8 257.9 -102.6 247.6C-118.3 237.3 -137.9 237.8 -153.3 229.5C-168.8 221.2 -180.1 204 -189 189C-197.9 174 -204.4 161.1 -228.9 153C-253.4 144.8 -295.9 141.4 -299.8 124.2C-303.7 107 -269.1 76.1 -266.8 53.1C-264.5 30.1 -294.5 15 -324.5 0L0 0Z" fill="#f9c4b3"></path><path d="M0 243.4C-15.7 237.3 -31.5 231.1 -43.8 220.2C-56.1 209.2 -65.1 193.4 -76.9 185.7C-88.7 178 -103.4 178.4 -115 172.1C-126.6 165.9 -135.1 153 -141.8 141.8C-148.5 130.5 -153.3 120.8 -171.7 114.7C-190.1 108.6 -221.9 106 -224.8 93.1C-227.8 80.2 -201.8 57 -200.1 39.8C-198.3 22.6 -220.9 11.3 -243.4 0L0 0Z" fill="#f9bab2"></path><path d="M0 162.2C-10.5 158.2 -21 154.1 -29.2 146.8C-37.4 139.5 -43.4 128.9 -51.3 123.8C-59.2 118.7 -68.9 118.9 -76.7 114.7C-84.4 110.6 -90.1 102 -94.5 94.5C-99 87 -102.2 80.6 -114.5 76.5C-126.7 72.4 -147.9 70.7 -149.9 62.1C-151.9 53.5 -134.5 38 -133.4 26.5C-132.2 15 -147.2 7.5 -162.2 0L0 0Z" fill="#f6b0b5"></path><path d="M0 81.1C-5.2 79.1 -10.5 77 -14.6 73.4C-18.7 69.7 -21.7 64.5 -25.6 61.9C-29.6 59.3 -34.5 59.5 -38.3 57.4C-42.2 55.3 -45 51 -47.3 47.3C-49.5 43.5 -51.1 40.3 -57.2 38.2C-63.4 36.2 -74 35.3 -74.9 31C-75.9 26.7 -67.3 19 -66.7 13.3C-66.1 7.5 -73.6 3.8 -81.1 0L0 0Z" fill="#f4acb7"></path></g><g transform="translate(0, 600)"><path d="M0 -486.7C26.8 -456.3 53.7 -425.8 83.5 -419.8C113.3 -413.7 146.1 -432.1 181 -437C215.9 -441.9 253 -433.4 270.4 -404.7C287.9 -376 285.8 -327.2 298.4 -298.4C311 -269.6 338.3 -260.9 365 -243.9C391.7 -226.9 417.7 -201.7 413.9 -171.4C410.1 -141.1 376.3 -105.7 383.5 -76.3C390.6 -46.9 438.7 -23.4 486.7 0L0 0Z" fill="#f6d8bc"></path><path d="M0 -405.6C22.4 -380.2 44.7 -354.9 69.6 -349.8C94.4 -344.8 121.7 -360.1 150.8 -364.2C179.9 -368.3 210.8 -361.2 225.4 -337.3C239.9 -313.4 238.2 -272.7 248.7 -248.7C259.2 -224.7 281.9 -217.4 304.2 -203.2C326.4 -189.1 348.1 -168.1 344.9 -142.9C341.7 -117.6 313.6 -88.1 319.6 -63.6C325.5 -39 365.6 -19.5 405.6 0L0 0Z" fill="#f8ceb6"></path><path d="M0 -324.5C17.9 -304.2 35.8 -283.9 55.7 -279.9C75.5 -275.8 97.4 -288.1 120.7 -291.3C143.9 -294.6 168.6 -288.9 180.3 -269.8C191.9 -250.7 190.5 -218.1 198.9 -198.9C207.3 -179.7 225.6 -173.9 243.3 -162.6C261.1 -151.3 278.5 -134.5 275.9 -114.3C273.4 -94.1 250.9 -70.5 255.7 -50.9C260.4 -31.2 292.5 -15.6 324.5 0L0 0Z" fill="#f9c4b3"></path><path d="M0 -243.4C13.4 -228.1 26.8 -212.9 41.7 -209.9C56.7 -206.9 73 -216 90.5 -218.5C108 -221 126.5 -216.7 135.2 -202.4C143.9 -188 142.9 -163.6 149.2 -149.2C155.5 -134.8 169.2 -130.4 182.5 -121.9C195.8 -113.5 208.9 -100.9 206.9 -85.7C205 -70.6 188.2 -52.9 191.7 -38.1C195.3 -23.4 219.3 -11.7 243.4 0L0 0Z" fill="#f9bab2"></path><path d="M0 -162.2C8.9 -152.1 17.9 -141.9 27.8 -139.9C37.8 -137.9 48.7 -144 60.3 -145.7C72 -147.3 84.3 -144.5 90.1 -134.9C96 -125.3 95.3 -109.1 99.5 -99.5C103.7 -89.9 112.8 -87 121.7 -81.3C130.6 -75.6 139.2 -67.2 138 -57.1C136.7 -47 125.4 -35.2 127.8 -25.4C130.2 -15.6 146.2 -7.8 162.2 0L0 0Z" fill="#f6b0b5"></path><path d="M0 -81.1C4.5 -76 8.9 -71 13.9 -70C18.9 -69 24.3 -72 30.2 -72.8C36 -73.7 42.2 -72.2 45.1 -67.5C48 -62.7 47.6 -54.5 49.7 -49.7C51.8 -44.9 56.4 -43.5 60.8 -40.6C65.3 -37.8 69.6 -33.6 69 -28.6C68.3 -23.5 62.7 -17.6 63.9 -12.7C65.1 -7.8 73.1 -3.9 81.1 0L0 0Z" fill="#f4acb7"></path></g></svg>